<?xml version="1.0" standalone="no"?>
<!DOCTYPE svg PUBLIC "-//W3C//DTD SVG 20010904//EN"
 "http://www.w3.org/TR/2001/REC-SVG-20010904/DTD/svg10.dtd">
<svg version="1.0" xmlns="http://www.w3.org/2000/svg"
 width="700.000000pt" height="700.000000pt" viewBox="0 0 700.000000 700.000000"
 preserveAspectRatio="xMidYMid meet">
<metadata>
Created by potrace 1.11, written by Peter Selinger 2001-2013
</metadata>
<g transform="translate(0.000000,700.000000) scale(0.100000,-0.100000)"
fill="#000000" stroke="none">
<path d="M4660 5109 c-14 -8 -73 -36 -352 -167 -49 -23 -88 -46 -88 -51 0 -5
34 -80 75 -166 41 -87 75 -158 75 -160 0 -1 38 -81 84 -176 46 -96 95 -199
109 -229 14 -30 51 -109 82 -175 32 -66 79 -165 105 -220 169 -353 198 -419
234 -529 48 -144 67 -261 62 -381 -8 -177 -51 -281 -167 -396 -119 -120 -285
-191 -445 -192 -78 0 -122 11 -204 51 -69 34 -80 42 -161 123 -87 87 -143 174
-222 344 -36 77 -95 203 -132 280 -37 77 -80 167 -95 200 -15 33 -60 128 -100
210 -40 83 -85 177 -100 210 -15 33 -51 110 -80 170 -29 61 -70 148 -92 195
-181 385 -263 534 -363 660 -224 280 -474 390 -780 341 -208 -32 -435 -149
-584 -301 -92 -93 -183 -243 -207 -340 -2 -8 -8 -33 -13 -55 -11 -42 -20 -119
-24 -192 -1 -31 -6 -43 -17 -43 -14 0 -42 53 -161 307 -19 40 -39 75 -46 77
-6 3 -33 -6 -60 -19 -26 -14 -95 -47 -153 -73 -189 -88 -245 -116 -252 -125
-7 -12 19 -70 226 -501 42 -87 76 -160 76 -161 0 -2 38 -81 84 -176 46 -96 93
-194 104 -219 11 -25 50 -108 87 -185 37 -77 83 -174 102 -215 19 -41 55 -117
79 -167 24 -51 65 -137 90 -190 26 -54 73 -154 106 -223 33 -69 75 -156 93
-195 18 -38 65 -137 104 -219 39 -82 71 -152 71 -156 0 -24 42 -13 147 37 356
167 345 161 338 183 -4 11 -40 91 -82 178 -41 86 -92 193 -113 237 -20 44 -99
211 -175 370 -220 463 -225 475 -272 575 -41 87 -102 231 -108 255 -1 6 -5 17
-8 25 -64 158 -82 428 -37 560 53 157 155 272 309 349 188 94 346 101 494 23
71 -37 194 -160 256 -257 47 -72 100 -174 166 -320 12 -27 51 -108 85 -180 34
-71 120 -251 190 -400 70 -148 150 -317 178 -375 27 -58 66 -141 87 -185 220
-468 296 -596 448 -754 295 -307 657 -359 1049 -151 297 156 455 391 474 700
4 58 9 107 11 110 13 15 44 -35 121 -199 48 -102 92 -186 98 -188 6 -2 80 30
165 70 85 41 186 89 226 107 39 18 74 37 76 44 2 6 -17 54 -42 107 -25 53 -66
138 -90 190 -25 52 -75 157 -111 234 -37 77 -83 174 -103 215 -42 90 -91 194
-272 575 -76 160 -153 324 -172 365 -20 41 -67 140 -105 220 -39 80 -81 170
-95 200 -14 30 -58 123 -97 205 -40 83 -90 187 -111 233 -39 82 -47 89 -75 71z"/>
</g>
</svg>
